<?xml version="1.0" encoding="UTF-8" standalone="no"?>
<!DOCTYPE svg PUBLIC "-//W3C//DTD SVG 1.1//EN" "http://www.w3.org/Graphics/SVG/1.1/DTD/svg11.dtd">
<svg width="100%" height="100%" viewBox="0 0 1812 1018" version="1.1" xmlns="http://www.w3.org/2000/svg" xmlns:xlink="http://www.w3.org/1999/xlink" xml:space="preserve" xmlns:serif="http://www.serif.com/" style="fill-rule:evenodd;clip-rule:evenodd;stroke-linecap:round;stroke-linejoin:round;stroke-miterlimit:1.5;">
    <g transform="matrix(1,0,0,1,-66.5142,-45.742)">
        <g transform="matrix(0.48598,-0.059911,0.0549518,0.445753,-97.0428,-29.4458)">
            <path d="M448.064,254.087L591.021,540L305.107,540L448.064,254.087Z" style="fill:none;stroke:black;stroke-width:47.8px;"/>
        </g>
        <g transform="matrix(0.470647,0.135119,-0.123935,0.431689,1446.47,-51.9594)">
            <path d="M448.064,254.087L591.021,540L305.107,540L448.064,254.087Z" style="fill:none;stroke:black;stroke-width:47.8px;"/>
        </g>
        <g transform="matrix(0.491505,0,0,0.491505,1074.82,574.649)">
            <circle cx="1286.08" cy="397.58" r="142.42" style="fill:none;stroke:black;stroke-width:44.76px;"/>
        </g>
        <g transform="matrix(0.491505,0,0,0.491505,257.887,786.664)">
            <circle cx="1286.08" cy="397.58" r="142.42" style="fill:none;stroke:black;stroke-width:44.76px;"/>
        </g>
        <g transform="matrix(0.392083,0.141699,-0.141699,0.392083,189.404,525.495)">
            <path d="M435.988,745.629C435.988,699.294 398.37,661.676 352.036,661.676L184.131,661.676C137.796,661.676 100.178,699.294 100.178,745.629L100.178,913.534C100.178,959.868 137.796,997.486 184.131,997.486L352.036,997.486C398.37,997.486 435.988,959.868 435.988,913.534L435.988,745.629Z" style="fill:none;stroke:black;stroke-width:52.77px;"/>
        </g>
        <g transform="matrix(0.311595,-0.123798,-0.123798,-0.311595,1548.23,683.733)">
            <path d="M385.385,502.61C444.421,561.646 503.654,619.52 562.493,619.717C621.331,619.915 680.635,504.658 738.414,503.796C796.193,502.934 851.062,615.733 909.165,614.547C967.268,613.361 1026.95,495.891 1087.03,496.681C1147.11,497.472 1208.37,619.685 1269.64,619.29" style="fill:none;stroke:black;stroke-width:65.62px;"/>
        </g>
        <g transform="matrix(0.188331,-0.277397,0.277397,0.188331,-134.488,523.677)">
            <path d="M385.385,502.61C444.421,561.646 503.654,619.52 562.493,619.717C621.331,619.915 680.635,504.658 738.414,503.796C796.193,502.934 851.062,615.733 909.165,614.547C967.268,613.361 1026.95,495.891 1087.03,496.681C1147.11,497.472 1208.37,619.685 1269.64,619.29" style="fill:none;stroke:black;stroke-width:65.62px;"/>
        </g>
        <g transform="matrix(0.413552,-0.0527426,0.0527426,0.413552,1018.39,33.3284)">
            <path d="M435.988,745.629C435.988,699.294 398.37,661.676 352.036,661.676L184.131,661.676C137.796,661.676 100.178,699.294 100.178,745.629L100.178,913.534C100.178,959.868 137.796,997.486 184.131,997.486L352.036,997.486C398.37,997.486 435.988,959.868 435.988,913.534L435.988,745.629Z" style="fill:none;stroke:black;stroke-width:52.77px;"/>
        </g>
    </g>
</svg>
